<svg width="125" height="125" viewBox="0 0 125 125" fill="none" xmlns="http://www.w3.org/2000/svg">
<g filter="url(#filter0_b_143_176)">
<rect x="0.302734" y="0.31543" width="124.616" height="124.616" rx="8.10514" fill="#FFB1CA"/>
</g>
<path d="M27.6562 95.5509V60.5974C27.6562 41.2932 43.3054 25.644 62.6097 25.644C81.9139 25.644 97.5631 41.2932 97.5631 60.5974V95.5509M27.6562 95.5509H39.3074C43.5972 95.5509 47.0748 92.0733 47.0748 87.7834V76.1323C47.0748 71.8425 43.5972 68.3649 39.3074 68.3649H27.6562V95.5509ZM97.5631 95.5509H85.9119C81.6221 95.5509 78.1445 92.0733 78.1445 87.7834V76.1323C78.1445 71.8425 81.6221 68.3649 85.9119 68.3649H97.5631V95.5509Z" stroke="#FEFFFF" strokeWidth="6.90438" strokeLinecap="round" strokeLinejoin="round"/>
<defs>
<filter id="filter0_b_143_176" x="-0.486341" y="-0.473645" width="126.194" height="126.195" filterUnits="userSpaceOnUse" color-interpolation-filters="sRGB">
<feFlood flood-opacity="0" result="BackgroundImageFix"/>
<feGaussianBlur in="BackgroundImage" stdDeviation="0.394538"/>
<feComposite in2="SourceAlpha" operator="in" result="effect1_backgroundBlur_143_176"/>
<feBlend mode="normal" in="SourceGraphic" in2="effect1_backgroundBlur_143_176" result="shape"/>
</filter>
</defs>
</svg>
