<svg width="125" height="125" viewBox="0 0 125 125" fill="none" xmlns="http://www.w3.org/2000/svg">
<g filter="url(#filter0_b_143_176)">
<rect x="0.302734" y="0.31543" width="124.616" height="124.616" rx="8.10514" fill="#9797A1"/>
</g>
<path d="M44.3333 81.6667L81.6667 44.3333M105 63C105 86.196 86.196 105 63 105C39.804 105 21 86.196 21 63C21 39.804 39.804 21 63 21C86.196 21 105 39.804 105 63ZM58.3333 49C58.3333 54.1547 54.1547 58.3333 49 58.3333C43.8453 58.3333 39.6667 54.1547 39.6667 49C39.6667 43.8453 43.8453 39.6667 49 39.6667C54.1547 39.6667 58.3333 43.8453 58.3333 49ZM86.3333 77C86.3333 82.1547 82.1547 86.3333 77 86.3333C71.8453 86.3333 67.6667 82.1547 67.6667 77C67.6667 71.8453 71.8453 67.6667 77 67.6667C82.1547 67.6667 86.3333 71.8453 86.3333 77Z" stroke="#FEFFFF" stroke-width="7" stroke-linecap="round" stroke-linejoin="round"/>
<defs>
<filter id="filter0_b_143_176" x="-0.486341" y="-0.473645" width="126.194" height="126.195" filterUnits="userSpaceOnUse" color-interpolation-filters="sRGB">
<feFlood flood-opacity="0" result="BackgroundImageFix"/>
<feGaussianBlur in="BackgroundImage" stdDeviation="0.394538"/>
<feComposite in2="SourceAlpha" operator="in" result="effect1_backgroundBlur_143_176"/>
<feBlend mode="normal" in="SourceGraphic" in2="effect1_backgroundBlur_143_176" result="shape"/>
</filter>
</defs>
</svg>
