<svg width="125" height="125" viewBox="0 0 125 125" fill="none" xmlns="http://www.w3.org/2000/svg">
<g filter="url(#filter0_b_143_176)">
<rect x="0.302734" y="0.31543" width="124.616" height="124.616" rx="8.10514" fill="#5F8FFF"/>
</g>
<path d="M81.474 18.0041C87.1842 20.1902 87.672 22.63 83.2694 27.0103L66.106 44.1671C65.6305 44.642 65.1796 45.1374 64.6303 45.7146C66.4258 47.8924 66.9464 50.2504 66.0692 52.9564C65.9093 53.4476 66.5979 54.3851 67.1144 54.9009C79.0596 66.8819 91.032 78.837 103.032 90.7661C105.34 93.0545 107.41 95.3838 108 98.6915V99.5103C107.84 100.153 107.693 100.8 107.529 101.443C107.153 102.875 106.42 104.19 105.399 105.264C104.378 106.338 103.101 107.137 101.688 107.586C100.275 108.035 98.7708 108.121 97.3158 107.834C95.8608 107.547 94.5021 106.897 93.3658 105.946C92.796 105.467 92.2795 104.922 91.7507 104.394C79.4531 92.1129 67.1554 79.8208 54.8578 67.5178C53.8781 66.5353 53.0951 65.9622 51.5784 66.5394C49.3279 67.3909 47.3439 66.3715 45.4501 64.9019C44.9131 65.4095 44.372 65.8885 43.8596 66.4002C37.8009 72.4425 31.7478 78.4903 25.7001 84.5436C24.3842 85.8618 23.011 86.8238 21.0188 86.2139C20.1154 85.9674 19.3239 85.4194 18.7757 84.6612C18.2276 83.903 17.9559 82.9803 18.0058 82.0464C18.0345 79.1808 18.178 76.1883 18.9896 73.4496C21.195 65.9949 25.5935 59.6783 30.2174 53.5336C30.7421 52.8336 31.2873 52.1458 31.9022 51.3475C29.5656 49.0182 28.4916 46.4351 29.8075 43.2174C29.9387 42.8981 29.5041 42.2635 29.2131 41.8624C26.401 38.0265 26.6429 33.4047 29.8526 30.187C33.0622 26.9694 37.7108 26.7647 41.564 29.4952C42.0067 29.8063 42.72 30.187 43.1217 30.0356C46.3027 28.8443 48.8237 29.9128 51.0455 32.2134C59.1743 25.8886 67.5408 20.1533 77.8093 18L81.474 18.0041ZM38.5675 50.7908C36.3949 53.5622 34.4109 55.9612 32.5744 58.4747C28.7581 63.6942 25.2737 69.1184 23.4004 75.3859C22.9454 76.917 22.806 78.5422 22.5191 80.1224L23.1708 80.3721L45.655 57.9016C46.6634 58.9946 47.635 60.0344 48.5983 61.0783C49.5616 62.1222 50.488 62.241 51.5456 61.1684C54.6528 58.0285 57.7887 54.9214 60.9164 51.806C61.8716 50.8563 61.8633 49.9229 60.8959 48.9896L57.3952 45.6122C65.0525 37.9692 72.5213 30.5227 80.4246 22.6423C68.1597 24.4313 59.5678 31.8082 50.5003 38.8739C49.4017 37.6827 48.2867 36.4955 47.1963 35.2878C46.2412 34.2357 45.3066 34.117 44.249 35.1814C41.1418 38.3172 38.0182 41.438 34.8782 44.5438C33.9149 45.5017 33.8903 46.4228 34.8782 47.348C36.0465 48.4615 37.2476 49.5627 38.5675 50.7908ZM57.014 62.7445C57.3419 63.1129 57.6821 63.5305 58.0593 63.9071C70.5537 76.393 83.0536 88.8761 95.5589 101.357C95.973 101.806 96.4363 102.207 96.9403 102.552C99.4531 104.136 102.962 102.413 102.856 99.453C102.815 98.2249 101.995 96.7225 101.072 95.7973C88.5889 83.2104 76.0548 70.6672 63.4702 58.1677C63.1546 57.8484 62.8021 57.5659 62.4782 57.2794L57.014 62.7445ZM33.2385 38.9394C35.0996 37.13 36.8745 35.3984 38.6536 33.6749C37.0139 32.1234 35.0627 32.0374 33.4722 33.4252C31.7792 34.9194 31.689 36.9335 33.2426 38.9394H33.2385Z" fill="#FEFFFF"/>
<defs>
<filter id="filter0_b_143_176" x="-0.486341" y="-0.473645" width="126.194" height="126.195" filterUnits="userSpaceOnUse" color-interpolation-filters="sRGB">
<feFlood flood-opacity="0" result="BackgroundImageFix"/>
<feGaussianBlur in="BackgroundImage" stdDeviation="0.394538"/>
<feComposite in2="SourceAlpha" operator="in" result="effect1_backgroundBlur_143_176"/>
<feBlend mode="normal" in="SourceGraphic" in2="effect1_backgroundBlur_143_176" result="shape"/>
</filter>
</defs>
</svg>
