<svg width="125" height="125" viewBox="0 0 125 125" fill="none" xmlns="http://www.w3.org/2000/svg">
<g filter="url(#filter0_b_143_176)">
<rect x="0.302734" y="0.31543" width="124.616" height="124.616" rx="8.10514" fill="#3A3A4E"/>
</g>
<path d="M65.4167 35.6667C65.4167 33.7797 63.887 32.25 62 32.25C60.113 32.25 58.5833 33.7797 58.5833 35.6667H65.4167ZM58.5833 44.7778C58.5833 46.6647 60.113 48.1944 62 48.1944C63.887 48.1944 65.4167 46.6647 65.4167 44.7778H58.5833ZM65.4167 81.2222C65.4167 79.3352 63.887 77.8056 62 77.8056C60.113 77.8056 58.5833 79.3352 58.5833 81.2222H65.4167ZM58.5833 90.3333C58.5833 92.2203 60.113 93.75 62 93.75C63.887 93.75 65.4167 92.2203 65.4167 90.3333H58.5833ZM75.6667 48.1944C77.5536 48.1944 79.0833 46.6647 79.0833 44.7778C79.0833 42.8908 77.5536 41.3611 75.6667 41.3611V48.1944ZM57.4444 44.7778V41.3611V44.7778ZM66.5556 81.2222V77.8056V81.2222ZM48.3333 77.8056C46.4464 77.8056 44.9167 79.3352 44.9167 81.2222C44.9167 83.1092 46.4464 84.6389 48.3333 84.6389V77.8056ZM66.5556 63V59.5833V63ZM57.4444 63V59.5833V63ZM53.9578 45.4713L52.6503 42.3147L53.9578 45.4713ZM49.0269 50.4022L45.8703 49.0947V49.0947L49.0269 50.4022ZM49.0269 57.3756L45.8703 58.6831L49.0269 57.3756ZM51.0019 60.3314L53.4179 57.9155L51.0019 60.3314ZM53.9578 62.3065L52.6503 65.463V65.463L53.9578 62.3065ZM70.0422 80.5287L71.3497 83.6853L70.0422 80.5287ZM74.9731 75.5978L78.1297 76.9053L74.9731 75.5978ZM74.9731 68.6244L78.1297 67.3169L74.9731 68.6244ZM72.9981 65.6686L70.5821 68.0845L72.9981 65.6686ZM70.0422 63.6935L71.3497 60.537L70.0422 63.6935ZM99.5833 63C99.5833 83.7567 82.7567 100.583 62 100.583V107.417C86.5306 107.417 106.417 87.5306 106.417 63H99.5833ZM62 100.583C41.2433 100.583 24.4167 83.7567 24.4167 63H17.5833C17.5833 87.5306 37.4694 107.417 62 107.417V100.583ZM24.4167 63C24.4167 42.2433 41.2433 25.4167 62 25.4167V18.5833C37.4694 18.5833 17.5833 38.4694 17.5833 63H24.4167ZM62 25.4167C82.7567 25.4167 99.5833 42.2433 99.5833 63H106.417C106.417 38.4694 86.5306 18.5833 62 18.5833V25.4167ZM58.5833 35.6667V44.7778H65.4167V35.6667H58.5833ZM58.5833 81.2222V90.3333H65.4167V81.2222H58.5833ZM75.6667 41.3611H57.4444V48.1944H75.6667V41.3611ZM66.5556 77.8056H48.3333V84.6389H66.5556V77.8056ZM66.5556 59.5833H57.4444V66.4167H66.5556V59.5833ZM57.4444 41.3611C55.7993 41.3611 54.1702 41.6852 52.6503 42.3147L55.2653 48.6279C55.9562 48.3417 56.6966 48.1944 57.4444 48.1944V41.3611ZM52.6503 42.3147C51.1303 42.9443 49.7493 43.8671 48.586 45.0304L53.4179 49.8623C53.9466 49.3335 54.5744 48.9141 55.2653 48.6279L52.6503 42.3147ZM48.586 45.0304C47.4227 46.1937 46.4999 47.5748 45.8703 49.0947L52.1835 51.7097C52.4696 51.0188 52.8891 50.3911 53.4179 49.8623L48.586 45.0304ZM45.8703 49.0947C45.2407 50.6147 44.9167 52.2437 44.9167 53.8889H51.75C51.75 53.1411 51.8973 52.4006 52.1835 51.7097L45.8703 49.0947ZM44.9167 53.8889C44.9167 55.5341 45.2407 57.1631 45.8703 58.6831L52.1835 56.0681C51.8973 55.3772 51.75 54.6367 51.75 53.8889H44.9167ZM45.8703 58.6831C46.4999 60.203 47.4227 61.5841 48.586 62.7474L53.4179 57.9155C52.8891 57.3867 52.4696 56.7589 52.1835 56.0681L45.8703 58.6831ZM48.586 62.7474C49.7493 63.9107 51.1303 64.8335 52.6503 65.463L55.2653 59.1499C54.5744 58.8637 53.9466 58.4442 53.4179 57.9155L48.586 62.7474ZM52.6503 65.463C54.1702 66.0926 55.7993 66.4167 57.4444 66.4167V59.5833C56.6966 59.5833 55.9562 59.436 55.2653 59.1499L52.6503 65.463ZM66.5556 84.6389C68.2007 84.6389 69.8298 84.3148 71.3497 83.6853L68.7347 77.3721C68.0438 77.6583 67.3034 77.8056 66.5556 77.8056V84.6389ZM71.3497 83.6853C72.8697 83.0557 74.2507 82.1329 75.414 80.9696L70.5821 76.1377C70.0534 76.6665 69.4256 77.0859 68.7347 77.3721L71.3497 83.6853ZM75.414 80.9696C76.5773 79.8063 77.5001 78.4252 78.1297 76.9053L71.8165 74.2903C71.5304 74.9812 71.1109 75.6089 70.5821 76.1377L75.414 80.9696ZM78.1297 76.9053C78.7593 75.3853 79.0833 73.7563 79.0833 72.1111L72.25 72.1111C72.25 72.8589 72.1027 73.5994 71.8165 74.2903L78.1297 76.9053ZM79.0833 72.1111C79.0833 70.4659 78.7593 68.8369 78.1297 67.3169L71.8165 69.9319C72.1027 70.6228 72.25 71.3633 72.25 72.1111L79.0833 72.1111ZM78.1297 67.3169C77.5001 65.797 76.5773 64.4159 75.414 63.2526L70.5821 68.0845C71.1109 68.6133 71.5304 69.2411 71.8165 69.9319L78.1297 67.3169ZM75.414 63.2526C74.2507 62.0893 72.8697 61.1665 71.3497 60.537L68.7347 66.8501C69.4256 67.1363 70.0534 67.5557 70.5821 68.0845L75.414 63.2526ZM71.3497 60.537C69.8298 59.9074 68.2007 59.5833 66.5556 59.5833V66.4167C67.3034 66.4167 68.0438 66.564 68.7347 66.8501L71.3497 60.537Z" fill="#FEFFFF"/>
<defs>
<filter id="filter0_b_143_176" x="-0.486341" y="-0.473645" width="126.194" height="126.195" filterUnits="userSpaceOnUse" color-interpolation-filters="sRGB">
<feFlood flood-opacity="0" result="BackgroundImageFix"/>
<feGaussianBlur in="BackgroundImage" stdDeviation="0.394538"/>
<feComposite in2="SourceAlpha" operator="in" result="effect1_backgroundBlur_143_176"/>
<feBlend mode="normal" in="SourceGraphic" in2="effect1_backgroundBlur_143_176" result="shape"/>
</filter>
</defs>
</svg>
